<?xml version="1.0" encoding="utf-8"?>
<svg width="299px" height="68px" viewBox="0 0 299 68" version="1.1" xmlns:xlink="http://www.w3.org/1999/xlink" xmlns="http://www.w3.org/2000/svg">
  <desc>Created with Lunacy</desc>
  <defs>
    <path d="M2.99808 7.04654L196.553 0.12331Q196.729 0.116989 196.903 0.126844Q197.077 0.136699 197.247 0.162648Q197.417 0.188598 197.581 0.23043Q197.745 0.272262 197.903 0.329636Q198.06 0.38701 198.21 0.459458Q198.359 0.531905 198.499 0.618836Q198.639 0.705766 198.768 0.80647Q198.897 0.907175 199.015 1.02083Q199.133 1.13449 199.238 1.26017Q199.343 1.38585 199.435 1.52254Q199.527 1.65922 199.605 1.80579Q199.683 1.95235 199.746 2.10761Q199.809 2.26287 199.856 2.42555Q199.904 2.58824 199.936 2.75702Q199.968 2.9258 199.984 3.0993Q200 3.2728 200 3.4496L200 10.5504Q200 10.7272 199.984 10.9013Q199.968 11.0754 199.936 11.2453Q199.904 11.4152 199.856 11.5796Q199.808 11.744 199.745 11.9015Q199.682 12.059 199.605 12.2083Q199.527 12.3577 199.435 12.4977Q199.343 12.6376 199.238 12.7671Q199.132 12.8965 199.014 13.0144Q198.897 13.1323 198.767 13.2376Q198.638 13.3429 198.498 13.4349Q198.358 13.5268 198.208 13.6046Q198.059 13.6824 197.902 13.7454Q197.744 13.8084 197.58 13.8561Q197.415 13.9038 197.245 13.9358Q197.075 13.9678 196.901 13.9839Q196.727 14 196.55 14L3 14Q2.84624 14 2.69485 13.986Q2.54347 13.972 2.39569 13.9442Q2.24791 13.9163 2.10495 13.8748Q1.96199 13.8334 1.825 13.7786Q1.68802 13.7238 1.55814 13.6561Q1.42826 13.5885 1.30653 13.5085Q1.1848 13.4286 1.07223 13.337Q0.959651 13.2454 0.857143 13.1429Q0.754635 13.0403 0.663032 12.9278Q0.571429 12.8152 0.491477 12.6935Q0.411525 12.5717 0.343877 12.4419Q0.276229 12.312 0.221437 12.175Q0.166644 12.038 0.125154 11.8951Q0.0836631 11.7521 0.0558134 11.6043Q0.0279637 11.4565 0.0139819 11.3051Q0 11.1538 0 11L0 10.1538Q0 10 0.0139729 9.84813Q0.0279459 9.69625 0.0557778 9.54747Q0.0836097 9.3987 0.125074 9.25425Q0.166537 9.10981 0.221295 8.97087Q0.276053 8.83193 0.343657 8.69963Q0.411262 8.56733 0.491163 8.44274Q0.571064 8.31816 0.662608 8.20231Q0.754153 8.08646 0.856595 7.98028Q0.959037 7.87411 1.07154 7.77848Q1.18405 7.68286 1.30569 7.59855Q1.42734 7.51425 1.55714 7.44196Q1.68694 7.36967 1.82384 7.30998Q1.96073 7.25029 2.1036 7.20369Q2.24647 7.15709 2.39416 7.12396Q2.54184 7.09083 2.69313 7.07143Q2.84442 7.05204 2.99808 7.04654Z" id="path_1" />
    <clipPath id="mask_1">
      <use xlink:href="#path_1" />
    </clipPath>
  </defs>
  <g id="Level-Indicator---First-Walk">
    <path d="M34 0L265 0Q265.871 0 266.736 0.0396355Q267.601 0.079271 268.458 0.158461Q269.316 0.237651 270.164 0.356235Q271.012 0.474818 271.849 0.632552Q272.686 0.790287 273.51 0.98685Q274.334 1.18341 275.144 1.41841Q275.954 1.6534 276.747 1.92634Q277.541 2.19928 278.317 2.50961Q279.092 2.81995 279.849 3.16704Q280.606 3.51413 281.341 3.89728Q282.077 4.28042 282.79 4.69883Q283.503 5.11724 284.193 5.57007Q284.882 6.0229 285.546 6.50922Q286.211 6.99554 286.848 7.51436Q287.486 8.03318 288.095 8.58344Q288.705 9.13371 289.286 9.71429Q289.866 10.2949 290.417 10.9046Q290.967 11.5143 291.486 12.1519Q292.004 12.7895 292.491 13.4537Q292.977 14.1179 293.43 14.8073Q293.883 15.4968 294.301 16.21Q294.72 16.9233 295.103 17.6589Q295.486 18.3945 295.833 19.151Q296.18 19.9075 296.49 20.6834Q296.801 21.4592 297.074 22.2528Q297.347 23.0464 297.582 23.8561Q297.817 24.6658 298.013 25.49Q298.21 26.3142 298.367 27.1511Q298.525 27.9881 298.644 28.8362Q298.762 29.6842 298.842 30.5417Q298.921 31.3991 298.96 32.2641Q299 33.1291 299 34L299 34Q299 34.8709 298.96 35.7359Q298.921 36.6009 298.842 37.4584Q298.762 38.3158 298.644 39.1638Q298.525 40.0119 298.367 40.8489Q298.21 41.6859 298.013 42.51Q297.817 43.3342 297.582 44.1439Q297.347 44.9536 297.074 45.7472Q296.801 46.5408 296.49 47.3166Q296.18 48.0925 295.833 48.849Q295.486 49.6055 295.103 50.3411Q294.72 51.0767 294.301 51.79Q293.883 52.5032 293.43 53.1927Q292.977 53.8821 292.491 54.5463Q292.004 55.2105 291.486 55.8481Q290.967 56.4857 290.417 57.0954Q289.866 57.7051 289.286 58.2857Q288.705 58.8663 288.095 59.4166Q287.486 59.9668 286.848 60.4856Q286.211 61.0045 285.546 61.4908Q284.882 61.9771 284.193 62.4299Q283.503 62.8828 282.79 63.3012Q282.077 63.7196 281.341 64.1027Q280.606 64.4859 279.849 64.833Q279.092 65.1801 278.317 65.4904Q277.541 65.8007 276.747 66.0737Q275.954 66.3466 275.144 66.5816Q274.334 66.8166 273.51 67.0132Q272.686 67.2097 271.849 67.3674Q271.012 67.5252 270.164 67.6438Q269.316 67.7623 268.458 67.8415Q267.601 67.9207 266.736 67.9604Q265.871 68 265 68L34 68Q33.1291 68 32.2641 67.9604Q31.3991 67.9207 30.5417 67.8415Q29.6842 67.7623 28.8362 67.6438Q27.9881 67.5252 27.1511 67.3674Q26.3142 67.2097 25.49 67.0132Q24.6658 66.8166 23.8561 66.5816Q23.0464 66.3466 22.2528 66.0737Q21.4592 65.8007 20.6834 65.4904Q19.9075 65.1801 19.151 64.833Q18.3945 64.4859 17.6589 64.1027Q16.9233 63.7196 16.21 63.3012Q15.4968 62.8828 14.8073 62.4299Q14.1179 61.9771 13.4537 61.4908Q12.7895 61.0045 12.1519 60.4856Q11.5143 59.9668 10.9046 59.4166Q10.2949 58.8663 9.71429 58.2857Q9.13371 57.7051 8.58344 57.0954Q8.03318 56.4857 7.51436 55.8481Q6.99554 55.2105 6.50922 54.5463Q6.0229 53.8821 5.57007 53.1927Q5.11724 52.5032 4.69883 51.79Q4.28042 51.0767 3.89728 50.3411Q3.51413 49.6055 3.16704 48.849Q2.81995 48.0925 2.50961 47.3166Q2.19928 46.5408 1.92634 45.7472Q1.6534 44.9536 1.41841 44.1439Q1.18341 43.3342 0.98685 42.51Q0.790287 41.6859 0.632552 40.8489Q0.474818 40.0119 0.356235 39.1638Q0.237651 38.3158 0.158461 37.4584Q0.079271 36.6009 0.0396355 35.7359Q0 34.8709 0 34L0 34Q0 33.1291 0.0396355 32.2641Q0.079271 31.3991 0.158461 30.5417Q0.237651 29.6842 0.356235 28.8362Q0.474818 27.9881 0.632552 27.1511Q0.790287 26.3142 0.98685 25.49Q1.18341 24.6658 1.41841 23.8561Q1.6534 23.0464 1.92634 22.2528Q2.19928 21.4592 2.50961 20.6834Q2.81995 19.9075 3.16704 19.151Q3.51413 18.3945 3.89728 17.6589Q4.28042 16.9233 4.69883 16.21Q5.11724 15.4968 5.57007 14.8073Q6.0229 14.1179 6.50922 13.4537Q6.99554 12.7895 7.51436 12.1519Q8.03318 11.5143 8.58344 10.9046Q9.13371 10.2949 9.71429 9.71429Q10.2949 9.13371 10.9046 8.58344Q11.5143 8.03318 12.1519 7.51436Q12.7895 6.99554 13.4537 6.50922Q14.1179 6.0229 14.8073 5.57007Q15.4968 5.11724 16.21 4.69883Q16.9233 4.28042 17.6589 3.89728Q18.3945 3.51413 19.151 3.16704Q19.9075 2.81995 20.6834 2.50961Q21.4592 2.19928 22.2528 1.92634Q23.0464 1.6534 23.8561 1.41841Q24.6658 1.18341 25.49 0.98685Q26.3142 0.790287 27.1511 0.632552Q27.9881 0.474818 28.8362 0.356235Q29.6842 0.237651 30.5417 0.158461Q31.3991 0.079271 32.2641 0.0396355Q33.1291 0 34 0Z" id="Rectangle" fill="#F4F4F4" stroke="#E9E9E9" stroke-width="0.5" />
    <g id="+-230" transform="translate(250.081 49)">
      <path d="M11.4602 2.79297Q11.7688 3.07227 11.7688 3.56055Q11.7688 4.04102 11.509 4.41797Q11.2493 4.79492 10.5383 5.29492Q9.84303 5.7793 9.51491 6.125Q9.18678 6.4707 9.0442 6.83594Q8.90162 7.20117 8.90162 7.72461L8.90162 8.02539L12.7063 8.02539L12.7063 7.3457L9.6985 7.3457Q9.6985 7.04883 9.80006 6.8418Q9.90162 6.63477 10.1575 6.4082Q10.4133 6.18164 11.1712 5.6582Q11.9133 5.14648 12.22 4.6582Q12.5266 4.16992 12.5266 3.50195Q12.5266 2.75195 12.0266 2.3125Q11.5266 1.87305 10.7063 1.87305Q10.1985 1.87305 9.82155 2.03711Q9.44459 2.20117 9.14772 2.50977L9.14772 3.25195Q9.47975 2.89648 9.86256 2.70508Q10.2454 2.51367 10.6204 2.51367Q11.1516 2.51367 11.4602 2.79297ZM13.8228 7.01367Q14.4439 7.49414 15.2251 7.49414Q15.8501 7.49414 16.2154 7.1875Q16.5806 6.88086 16.5806 6.36523Q16.5806 5.2168 14.9361 5.2168L14.4322 5.2168L14.4322 4.58398L14.9126 4.58398Q16.3697 4.58398 16.3697 3.50586Q16.3697 2.50977 15.2564 2.50977Q14.6197 2.50977 14.0572 2.93945L14.0572 2.2168Q14.6509 1.87305 15.4439 1.87305Q16.2173 1.87305 16.6861 2.27734Q17.1548 2.68164 17.1548 3.32617Q17.1548 4.51367 15.9439 4.85352L15.9439 4.86914Q16.6001 4.93945 16.981 5.33203Q17.3618 5.72461 17.3618 6.31055Q17.3618 7.12695 16.774 7.62695Q16.1861 8.12695 15.2095 8.12695Q14.3501 8.12695 13.8228 7.80664L13.8228 7.01367ZM18.9744 2.69531Q18.4432 3.51758 18.4432 5.11914Q18.4432 6.58789 18.949 7.35742Q19.4549 8.12695 20.3767 8.12695Q21.3533 8.12695 21.8943 7.31641Q22.4353 6.50586 22.4353 4.97461Q22.4353 1.87305 20.5135 1.87305Q19.5057 1.87305 18.9744 2.69531ZM20.4471 7.49414Q19.2244 7.49414 19.2244 5.08398Q19.2244 2.50977 20.4705 2.50977Q21.6502 2.50977 21.6502 5.04492Q21.6502 7.49414 20.4471 7.49414ZM3.26563 5.81055L4.96484 5.81055L4.96484 5.21289L3.26563 5.21289L3.26563 3.52148L2.67578 3.52148L2.67578 5.21289L0.984375 5.21289L0.984375 5.81055L2.67578 5.81055L2.67578 7.50195L3.26563 7.50195L3.26563 5.81055Z" />
    </g>
    <g id="Guage" transform="translate(73 32)">
      <path d="M2.99808 7.04654L196.553 0.12331Q196.729 0.116989 196.903 0.126844Q197.077 0.136699 197.247 0.162648Q197.417 0.188598 197.581 0.23043Q197.745 0.272262 197.903 0.329636Q198.06 0.38701 198.21 0.459458Q198.359 0.531905 198.499 0.618836Q198.639 0.705766 198.768 0.80647Q198.897 0.907175 199.015 1.02083Q199.133 1.13449 199.238 1.26017Q199.343 1.38585 199.435 1.52254Q199.527 1.65922 199.605 1.80579Q199.683 1.95235 199.746 2.10761Q199.809 2.26287 199.856 2.42555Q199.904 2.58824 199.936 2.75702Q199.968 2.9258 199.984 3.0993Q200 3.2728 200 3.4496L200 10.5504Q200 10.7272 199.984 10.9013Q199.968 11.0754 199.936 11.2453Q199.904 11.4152 199.856 11.5796Q199.808 11.744 199.745 11.9015Q199.682 12.059 199.605 12.2083Q199.527 12.3577 199.435 12.4977Q199.343 12.6376 199.238 12.7671Q199.132 12.8965 199.014 13.0144Q198.897 13.1323 198.767 13.2376Q198.638 13.3429 198.498 13.4349Q198.358 13.5268 198.208 13.6046Q198.059 13.6824 197.902 13.7454Q197.744 13.8084 197.58 13.8561Q197.415 13.9038 197.245 13.9358Q197.075 13.9678 196.901 13.9839Q196.727 14 196.55 14L3 14Q2.84624 14 2.69485 13.986Q2.54347 13.972 2.39569 13.9442Q2.24791 13.9163 2.10495 13.8748Q1.96199 13.8334 1.825 13.7786Q1.68802 13.7238 1.55814 13.6561Q1.42826 13.5885 1.30653 13.5085Q1.1848 13.4286 1.07223 13.337Q0.959651 13.2454 0.857143 13.1429Q0.754635 13.0403 0.663032 12.9278Q0.571429 12.8152 0.491477 12.6935Q0.411525 12.5717 0.343877 12.4419Q0.276229 12.312 0.221437 12.175Q0.166644 12.038 0.125154 11.8951Q0.0836631 11.7521 0.0558134 11.6043Q0.0279637 11.4565 0.0139819 11.3051Q0 11.1538 0 11L0 10.1538Q0 10 0.0139729 9.84813Q0.0279459 9.69625 0.0557778 9.54747Q0.0836097 9.3987 0.125074 9.25425Q0.166537 9.10981 0.221295 8.97087Q0.276053 8.83193 0.343657 8.69963Q0.411262 8.56733 0.491163 8.44274Q0.571064 8.31816 0.662608 8.20231Q0.754153 8.08646 0.856595 7.98028Q0.959037 7.87411 1.07154 7.77848Q1.18405 7.68286 1.30569 7.59855Q1.42734 7.51425 1.55714 7.44196Q1.68694 7.36967 1.82384 7.30998Q1.96073 7.25029 2.1036 7.20369Q2.24647 7.15709 2.39416 7.12396Q2.54184 7.09083 2.69313 7.07143Q2.84442 7.05204 2.99808 7.04654Z" id="Mask" fill="#FFFFFF" stroke="none" />
      <g id="Stroke">
        <g clip-path="url(#mask_1)">
          <use xlink:href="#path_1" fill="none" stroke="#000000" stroke-opacity="0.0509803928" stroke-width="1" />
        </g>
      </g>
    </g>
    <g id="Icon/levels" transform="translate(9.125 4)">
      <path d="M25 50C38.8071 50 50 38.8071 50 25C50 11.1929 38.8071 0 25 0C11.1929 0 0 11.1929 0 25C0 38.8071 11.1929 50 25 50Z" transform="translate(1.875 5)" id="Mask" fill="#FFC20E" stroke="none" />
      <path d="M0 5.3125C2.93399 5.3125 5.3125 2.93399 5.3125 0C5.3125 2.93399 7.6908 5.3125 10.625 5.3125C7.6908 5.3125 5.3125 7.69101 5.3125 10.625C5.3125 7.69101 2.93399 5.3125 0 5.3125" transform="translate(17.5 0)" id="Fill-1" fill="#FEF5EC" stroke="none" />
      <path d="M0 3.1002C1.71218 3.1002 3.1002 1.71218 3.1002 0C3.1002 1.71218 4.4881 3.1002 6.2004 3.1002C4.4881 3.1002 3.1002 4.48822 3.1002 6.2004C3.1002 4.48822 1.71218 3.1002 0 3.1002" transform="translate(44.375 21.875)" id="Fill-1" fill="#FEF5EC" stroke="none" />
      <path d="M0 3.1002C1.71218 3.1002 3.1002 1.71218 3.1002 0C3.1002 1.71218 4.48809 3.1002 6.2004 3.1002C4.48809 3.1002 3.1002 4.48822 3.1002 6.2004C3.1002 4.48822 1.71218 3.1002 0 3.1002" transform="translate(0 11.875)" id="Fill-1" fill="#FEF5EC" stroke="none" />
    </g>
    <g id="YOUR-FIRST-WALK" fill="#1D1D1B" transform="translate(74 14)">
      <path d="M9.82813 6.1084Q9.82813 3.91113 11.0176 2.61035Q12.207 1.30957 14.2402 1.30957Q16.1328 1.30957 17.2871 2.58105Q18.4414 3.85254 18.4414 5.8916Q18.4414 8.10059 17.2578 9.39551Q16.0742 10.6904 14.0938 10.6904Q12.1602 10.6904 10.9941 9.41895Q9.82813 8.14746 9.82813 6.1084ZM69.8516 8.83301Q70.2676 9.19629 70.9648 9.43066Q71.6621 9.66504 72.2891 9.66504Q74.1992 9.66504 74.1992 8.30566Q74.1992 7.9248 73.9941 7.62012Q73.7891 7.31543 73.4316 7.08105Q73.0742 6.84668 72.0898 6.36035Q70.7246 5.68066 70.291 5.09766Q69.8574 4.51465 69.8574 3.76465Q69.8574 2.63379 70.7656 1.97168Q71.6738 1.30957 73.0566 1.30957Q74.4102 1.30957 75.043 1.6377L75.043 2.91504Q74.2227 2.34668 72.9688 2.34668Q72.1367 2.34668 71.6123 2.69531Q71.0879 3.04395 71.0879 3.66504Q71.0879 4.21582 71.4512 4.56152Q71.8145 4.90723 73.0273 5.50488Q74.3633 6.14355 74.8965 6.78223Q75.4297 7.4209 75.4297 8.21777Q75.4297 9.41309 74.5625 10.0518Q73.6953 10.6904 72.1543 10.6904Q71.6152 10.6904 70.8975 10.541Q70.1797 10.3916 69.8516 10.1689L69.8516 8.83301ZM7.17773 1.46191L4.18945 7.19824L4.18945 10.5381L3.01172 10.5381L3.01172 7.22754L0.0996094 1.46191L1.44141 1.46191L3.4043 5.48145Q3.41016 5.4873 3.62109 6.06152L3.63867 6.06152Q3.70898 5.81543 3.87891 5.4873L5.92969 1.46191L7.17773 1.46191ZM25.4277 10.6904Q28.9199 10.6904 28.9199 6.84082L28.9199 1.46191L27.748 1.46191L27.748 7.01074Q27.748 9.64746 25.5391 9.64746Q23.2539 9.64746 23.2539 6.92285L23.2539 1.46191L22.082 1.46191L22.082 6.97559Q22.082 10.6904 25.4277 10.6904ZM39.7793 10.5381L38.3965 10.5381L36.8906 8.01855Q36.4395 7.2627 36.0645 6.99023Q35.6895 6.71777 35.168 6.71777L34.3242 6.71777L34.3242 10.5381L33.1523 10.5381L33.1523 1.46191L35.918 1.46191Q37.2422 1.46191 37.9922 2.10059Q38.7422 2.73926 38.7422 3.8877Q38.7422 5.77442 36.7266 6.33691L36.7266 6.36621Q37.1016 6.52441 37.374 6.81738Q37.6465 7.11035 38.0801 7.81934L39.7793 10.5381ZM47.709 2.50488L51.2129 2.50488L51.2129 1.46191L46.5371 1.46191L46.5371 10.5381L47.709 10.5381L47.709 6.57129L50.9551 6.57129L50.9551 5.54004L47.709 5.54004L47.709 2.50488ZM56.084 1.46191L56.084 10.5381L54.9121 10.5381L54.9121 1.46191L56.084 1.46191ZM65.6836 10.5381L67.0664 10.5381L65.3672 7.81934Q64.9336 7.11035 64.6611 6.81738Q64.3887 6.52441 64.0137 6.36621L64.0137 6.33691Q66.0293 5.77442 66.0293 3.8877Q66.0293 2.73926 65.2793 2.10059Q64.5293 1.46191 63.2051 1.46191L60.4395 1.46191L60.4395 10.5381L61.6113 10.5381L61.6113 6.71777L62.4551 6.71777Q62.9766 6.71777 63.3516 6.99023Q63.7266 7.2627 64.1777 8.01855L65.6836 10.5381ZM82.0645 2.50488L84.6836 2.50488L84.6836 1.46191L78.2793 1.46191L78.2793 2.50488L80.8867 2.50488L80.8867 10.5381L82.0645 10.5381L82.0645 2.50488ZM102.516 1.46191L99.9727 10.5381L98.6074 10.5381L96.7793 3.99902Q96.6563 3.55371 96.6328 3.06152L96.6094 3.06152Q96.5742 3.54785 96.4453 3.9873L94.5996 10.5381L93.2461 10.5381L90.6152 1.46191L91.9102 1.46191L93.7617 8.31738Q93.8848 8.78027 93.9082 9.24902L93.9434 9.24902Q93.9727 8.89746 94.1367 8.31738L96.0996 1.46191L97.2539 1.46191L99.1289 8.37012Q99.2227 8.70996 99.2813 9.2373L99.3047 9.2373Q99.334 8.85645 99.4746 8.34668L101.256 1.46191L102.516 1.46191ZM111.676 10.5381L112.971 10.5381L109.514 1.46191L108.26 1.46191L104.803 10.5381L106.098 10.5381L106.971 8.05371L110.75 8.05371L111.676 10.5381ZM121.07 10.5381L116.283 10.5381L116.283 1.46191L117.455 1.46191L117.455 9.50098L121.07 9.50098L121.07 10.5381ZM129.293 10.5381L130.898 10.5381L126.814 5.81543L130.623 1.46191L129.176 1.46191L125.883 5.39941Q125.742 5.5752 125.643 5.7334L125.613 5.7334L125.613 1.46191L124.441 1.46191L124.441 10.5381L125.613 10.5381L125.613 6.07324L125.643 6.07324Q125.707 6.19629 125.883 6.41309L129.293 10.5381ZM11.0586 6.01465Q11.0586 7.66113 11.8994 8.6543Q12.7402 9.64746 14.0938 9.64746Q15.5469 9.64746 16.376 8.69531Q17.2051 7.74316 17.2051 6.03223Q17.2051 4.27441 16.3936 3.31934Q15.582 2.36426 14.1699 2.36426Q12.7813 2.36426 11.9199 3.37207Q11.0586 4.37988 11.0586 6.01465ZM34.3242 2.4873L34.3242 5.69238L35.707 5.69238Q36.5098 5.69238 37.0107 5.22363Q37.5117 4.75488 37.5117 3.99316Q37.5117 3.28418 37.0547 2.88574Q36.5977 2.48731 35.7246 2.4873L34.3242 2.4873ZM61.6113 5.69238L61.6113 2.4873L63.0117 2.4873Q63.8848 2.48731 64.3418 2.88574Q64.7988 3.28418 64.7988 3.99316Q64.7988 4.75488 64.2979 5.22363Q63.7969 5.69238 62.9941 5.69238L61.6113 5.69238ZM109.016 3.25488L110.387 7.02832L107.34 7.02832L108.699 3.25488Q108.781 3.03223 108.846 2.62207L108.875 2.62207Q108.951 3.07324 109.016 3.25488Z" />
    </g>
  </g>
</svg>