<?xml version="1.0" encoding="utf-8"?>
<svg width="200px" height="14px" viewBox="0 0 200 14" version="1.1" xmlns:xlink="http://www.w3.org/1999/xlink" xmlns="http://www.w3.org/2000/svg">
  <desc>Created with Lunacy</desc>
  <defs>
    <path d="M2.99808 7.04654L196.553 0.12331Q196.729 0.116989 196.903 0.126844Q197.077 0.136699 197.247 0.162648Q197.417 0.188598 197.581 0.23043Q197.745 0.272262 197.903 0.329636Q198.06 0.38701 198.21 0.459458Q198.359 0.531905 198.499 0.618836Q198.639 0.705766 198.768 0.80647Q198.897 0.907175 199.015 1.02083Q199.133 1.13449 199.238 1.26017Q199.343 1.38585 199.435 1.52254Q199.527 1.65922 199.605 1.80579Q199.683 1.95235 199.746 2.10761Q199.809 2.26287 199.856 2.42555Q199.904 2.58824 199.936 2.75702Q199.968 2.9258 199.984 3.0993Q200 3.2728 200 3.4496L200 10.5504Q200 10.7272 199.984 10.9013Q199.968 11.0754 199.936 11.2453Q199.904 11.4152 199.856 11.5796Q199.808 11.744 199.745 11.9015Q199.682 12.059 199.605 12.2083Q199.527 12.3577 199.435 12.4977Q199.343 12.6376 199.238 12.7671Q199.132 12.8965 199.014 13.0144Q198.897 13.1323 198.767 13.2376Q198.638 13.3429 198.498 13.4349Q198.358 13.5268 198.208 13.6046Q198.059 13.6824 197.902 13.7454Q197.744 13.8084 197.58 13.8561Q197.415 13.9038 197.245 13.9358Q197.075 13.9678 196.901 13.9839Q196.727 14 196.55 14L3 14Q2.84624 14 2.69485 13.986Q2.54347 13.972 2.39569 13.9442Q2.24791 13.9163 2.10495 13.8748Q1.96199 13.8334 1.825 13.7786Q1.68802 13.7238 1.55814 13.6561Q1.42826 13.5885 1.30653 13.5085Q1.1848 13.4286 1.07223 13.337Q0.959651 13.2454 0.857143 13.1429Q0.754635 13.0403 0.663032 12.9278Q0.571429 12.8152 0.491477 12.6935Q0.411525 12.5717 0.343877 12.4419Q0.276229 12.312 0.221437 12.175Q0.166644 12.038 0.125154 11.8951Q0.0836631 11.7521 0.0558134 11.6043Q0.0279637 11.4565 0.0139819 11.3051Q0 11.1538 0 11L0 10.1538Q0 10 0.0139729 9.84813Q0.0279459 9.69625 0.0557778 9.54747Q0.0836097 9.3987 0.125074 9.25425Q0.166537 9.10981 0.221295 8.97087Q0.276053 8.83193 0.343657 8.69963Q0.411262 8.56733 0.491163 8.44274Q0.571064 8.31816 0.662608 8.20231Q0.754153 8.08646 0.856595 7.98028Q0.959037 7.87411 1.07154 7.77848Q1.18405 7.68286 1.30569 7.59855Q1.42734 7.51425 1.55714 7.44196Q1.68694 7.36967 1.82384 7.30998Q1.96073 7.25029 2.1036 7.20369Q2.24647 7.15709 2.39416 7.12396Q2.54184 7.09083 2.69313 7.07143Q2.84442 7.05204 2.99808 7.04654Z" id="path_1" />
    <clipPath id="mask_1">
      <use xlink:href="#path_1" />
    </clipPath>
  </defs>
  <g id="Stroke">
    <g clip-path="url(#mask_1)">
      <use xlink:href="#path_1" fill="none" stroke="#000000" stroke-opacity="0.0509803928" stroke-width="1" />
    </g>
  </g>
</svg>